<svg width="200" height="200" xmlns="http://www.w3.org/2000/svg">

 <g>
  <title>Layer 1</title>
  <path d="m54.90196,48.62745c0,0.39215 0,0.78431 0,1.17647c0,1.17647 0.51402,2.38441 0.78431,3.52941c0.40294,1.70687 1.07115,2.77525 1.56863,4.31373c0.64975,2.00939 1.39981,3.58157 1.96078,5.09804c0.60847,1.64485 1.391,3.57348 1.96078,5.49019c0.60176,2.02428 0.99884,3.57349 1.56863,5.4902c0.60176,2.02428 1.23103,3.51929 1.56863,5.4902c0.46817,2.73316 1.16926,4.59295 1.56863,6.66667c0.44496,2.31048 0.42958,4.30484 0.78431,5.88235c0.43869,1.9509 0.39216,3.92156 0.78432,5.4902c0.39216,1.56863 0.78431,3.52941 0.78431,5.49019c0,1.56863 0.39216,3.13726 0.39216,4.70589c0,1.56863 0,3.52941 0,5.4902c0,1.17647 0.18845,2.36813 0,3.52941c-0.19865,1.22409 -0.39216,2.35294 -0.78431,3.52941c-0.39216,1.17647 -0.70191,1.99154 -1.17648,3.13725c-0.33557,0.81014 -0.63162,2.02325 -1.17647,3.13726c-0.62122,1.27016 -1.0559,2.03371 -1.56863,2.74509c-0.64855,0.89983 -1.56863,1.56863 -2.7451,2.7451c-0.78431,0.78432 -1.96078,1.17647 -2.7451,1.96078c-0.78431,0.78432 -2.4154,1.41594 -3.52941,1.96078c-1.27016,0.62122 -1.99155,1.09404 -3.13726,1.56862c-0.81014,0.33557 -1.93496,0.44875 -2.7451,0.78432c-1.14571,0.47456 -1.96078,0.39215 -2.7451,0.39215c-1.17647,0 -2.35294,0 -3.52941,0c-1.17647,0 -2.31678,-0.1946 -3.92157,-0.39215c-1.16765,-0.14374 -3.13725,-0.78432 -5.09804,-1.56863c-1.96078,-0.7843 -4.31373,-1.56862 -5.88235,-2.35294c-1.56863,-0.78432 -3.72715,-1.58257 -5.4902,-2.7451c-0.92599,-0.6106 -2.12504,-1.34073 -2.7451,-1.96078c-0.62004,-0.62004 -0.89918,-1.29132 -1.17647,-1.56862c-0.2773,-0.2773 -0.50702,-0.11486 -0.78431,-0.39216c-0.2773,-0.2773 0.27729,-0.89918 0,-1.17647c-0.2773,-0.2773 -0.39216,-0.39216 -0.39216,-0.78432l0,-0.39216l0.39216,0l0,-0.39216" id="svg_10" stroke="#000" fill="none"/>
  <path d="m84.31373,135.29411c0.39215,0 0.85219,-0.72655 1.17647,-1.17647c0.51273,-0.71138 0.60412,-1.19745 0.78432,-1.96078c0.20146,-0.85344 0.70189,-1.59938 1.17647,-2.7451c0.33557,-0.81013 1.25033,-1.93868 1.56863,-3.13725c0.51324,-1.93262 0.93204,-3.48523 1.56863,-5.88235c0.51324,-1.93262 0.84225,-4.29153 1.56863,-6.27451c0.85309,-2.32888 1.05665,-4.34613 1.96078,-7.45098c0.69344,-2.3813 1.44881,-4.34613 2.35294,-7.45098c0.69344,-2.3813 1.42943,-4.35737 2.35294,-7.05882c0.68313,-1.99829 1.62656,-3.89938 2.35294,-5.88235c0.85309,-2.32889 1.66981,-4.66838 2.35294,-6.66667c0.92352,-2.70145 0.83882,-4.41804 1.96078,-7.45098c0.60847,-1.64484 1.17647,-3.13725 1.56863,-4.70588c0.39216,-1.56863 1.23306,-3.11143 1.56863,-3.92157c0.47457,-1.14571 0.57208,-1.84056 0.78432,-2.35294c0.15007,-0.36231 0.39216,-0.78431 0.39216,-0.39216c0,0.39216 0,0.78431 0,1.17647c0,1.17647 0.07386,2.723 0.39215,3.92157c0.51323,1.93263 0.71555,3.94563 1.56863,6.27451c0.72638,1.98298 1.80667,4.38264 2.74509,6.27451c1.0161,2.04848 2.11002,3.82864 3.52941,6.27451c0.88027,1.51687 1.47267,3.18903 2.35294,4.70589c0.70969,1.22293 1.17647,2.35294 1.56863,3.52941c0.39216,1.17647 0.97782,1.91316 1.17647,3.13725c0.12563,0.77419 0.8409,1.93496 1.17648,2.7451c0.47456,1.14571 1.36716,2.28382 1.56863,3.13725c0.1802,0.76333 0.57208,1.44841 0.78431,1.96078c0.15007,0.3623 0.11486,0.2773 0.39216,0c0.2773,-0.2773 0.49275,-0.31255 0.78432,-0.78432c0.65196,-1.05489 1.25108,-2.30647 1.96078,-3.52941c0.88026,-1.51686 1.30252,-2.6702 1.96078,-3.92157c0.98315,-1.86902 1.28964,-3.08559 1.96078,-4.70588c0.47456,-1.14571 1.17648,-2.7451 1.96078,-4.70588c0.78432,-1.96078 1.24234,-3.49818 1.96078,-5.09805c0.86511,-1.92649 1.17647,-3.13725 1.96078,-5.09804c0.7843,-1.96078 1.31184,-3.59881 1.96078,-5.4902c0.56917,-1.65884 0.87111,-3.26218 1.96078,-5.4902c0.62122,-1.27016 1.09406,-2.77586 1.56862,-3.92157c0.67114,-1.62029 1.17647,-2.35294 1.56863,-3.13726c0.39215,-0.78431 0.27193,-1.78086 0.7843,-1.56863c0.3623,0.15007 0,0.78431 0,1.56863c0,0.78431 0.04544,1.9466 0.39217,3.13726c0.45207,1.55242 0.99329,3.22322 2.35294,5.88235c1.041,2.03594 2.35295,4.31373 3.92157,7.45098c1.17647,2.35294 2.4297,4.66341 3.92157,7.45098c1.2413,2.3194 2.65567,5.53708 3.92157,7.84314c1.10036,2.00449 2.27213,5.13232 3.13725,7.05882c1.07767,2.3998 2.52271,5.02055 3.52942,7.45098c0.94914,2.29141 1.56862,4.70588 2.35294,7.05882c0.78432,2.35294 1.50873,5.11424 1.96078,6.66666c0.69344,2.38131 1.56863,4.31373 1.96078,5.88235c0.39215,1.56863 0.58284,3.06813 0.78432,3.92157c0.27029,1.14499 0.19069,1.89166 0.39215,2.7451c0.18019,0.76332 0,1.17647 0,1.56862l0,0.39217l0.39215,0" id="svg_13" stroke="#000" fill="none"/>
 </g>
</svg>