<svg xmlns="http://www.w3.org/2000/svg" version="1.1" xmlns:xlink="http://www.w3.org/1999/xlink" width="512" height="512" x="0" y="0" viewBox="0 0 48 48" style="enable-background:new 0 0 512 512" xml:space="preserve" class=""><g transform="matrix(1.62,0,0,1.62,-14.879999999999995,-14.879999999999995)"><path d="M33 9.25H15A2.753 2.753 0 0 0 12.25 12v24A2.753 2.753 0 0 0 15 38.75h18A2.753 2.753 0 0 0 35.75 36V12A2.753 2.753 0 0 0 33 9.25zM34.25 36c0 .69-.56 1.25-1.25 1.25H15c-.69 0-1.25-.56-1.25-1.25V12c0-.69.56-1.25 1.25-1.25h18c.69 0 1.25.56 1.25 1.25z" fill="#000000" opacity="1" data-original="#000000" class=""></path><path d="M20.858 19.75c.738 0 1.44-.31 1.975-.873a.75.75 0 0 0-1.085-1.035c-.25.263-.567.408-.89.408-.768 0-1.393-.785-1.393-1.75s.625-1.75 1.393-1.75c.413 0 .71.222.889.407a.75.75 0 1 0 1.085-1.035c-.537-.562-1.238-.872-1.974-.872-1.595 0-2.893 1.458-2.893 3.25s1.298 3.25 2.893 3.25zM26.304 19.278a.75.75 0 0 0 1.392 0l2-5a.75.75 0 1 0-1.392-.556L27 16.98l-1.304-3.258a.75.75 0 1 0-1.393.557zM31 23.25H17a.75.75 0 0 0 0 1.5h14a.75.75 0 0 0 0-1.5zM31 28.25H17a.75.75 0 0 0 0 1.5h14a.75.75 0 0 0 0-1.5zM24 33.25h-7a.75.75 0 0 0 0 1.5h7a.75.75 0 0 0 0-1.5z" fill="#000000" opacity="1" data-original="#000000" class=""></path></g></svg>