<svg xmlns="http://www.w3.org/2000/svg" version="1.1" xmlns:xlink="http://www.w3.org/1999/xlink" width="512" height="512" x="0" y="0" viewBox="0 0 511 512" style="enable-background:new 0 0 512 512" xml:space="preserve" class=""><g transform="matrix(1,0,0,1,39.99999999999997,0)"><path d="M156.082 190.668c-30.418 0-55.168-24.75-55.168-55.168s24.75-55.168 55.168-55.168c30.422 0 55.168 24.75 55.168 55.168s-24.746 55.168-55.168 55.168zm0-80.336c-13.875 0-25.168 11.29-25.168 25.168s11.293 25.168 25.168 25.168c13.879 0 25.168-11.29 25.168-25.168s-11.29-25.168-25.168-25.168zm0 0" fill="#000000" opacity="1" data-original="#000000" class=""></path><path d="M216.336 271H95.832c-8.285 0-15-6.715-15-15v-20.082c0-41.492 33.758-75.25 75.25-75.25s75.254 33.758 75.254 75.25V256c0 8.285-6.719 15-15 15zm-105.504-30h90.504v-5.082c0-24.953-20.3-45.25-45.254-45.25-24.95 0-45.25 20.297-45.25 45.25zM412.348 158.531H328.8c-30.418 0-55.168-24.746-55.168-55.164v-83.55c0-8.282 6.715-15 15-15s15 6.718 15 15v83.55c0 13.875 11.289 25.164 25.168 25.164h83.547c8.285 0 15 6.719 15 15 0 8.285-6.715 15-15 15zm0 0" fill="#000000" opacity="1" data-original="#000000" class=""></path><path d="M377 512H55.668C25.246 512 .5 487.254.5 456.832V55.168C.5 24.746 25.246 0 55.668 0h232.965c3.976 0 7.793 1.582 10.605 4.395l128.535 128.53a15.003 15.003 0 0 1 4.395 10.606v313.301C432.164 487.254 407.418 512 377 512zM55.668 30C41.789 30 30.5 41.29 30.5 55.168v401.664C30.5 470.711 41.79 482 55.668 482H377c13.879 0 25.168-11.29 25.168-25.168V149.746L282.422 30zm0 0" fill="#000000" opacity="1" data-original="#000000" class=""></path><path d="M336.836 431.668H95.832c-8.285 0-15-6.715-15-15s6.715-15 15-15h241.004c8.281 0 15 6.715 15 15s-6.719 15-15 15zM336.836 351.332H95.832c-8.285 0-15-6.715-15-15 0-8.281 6.715-15 15-15h241.004c8.281 0 15 6.719 15 15 0 8.285-6.719 15-15 15zM336.836 271h-40.172c-8.281 0-15-6.715-15-15s6.719-15 15-15h40.172c8.281 0 15 6.715 15 15s-6.719 15-15 15zm0 0" fill="#000000" opacity="1" data-original="#000000" class=""></path></g></svg>