<svg xmlns="http://www.w3.org/2000/svg" version="1.1" xmlns:xlink="http://www.w3.org/1999/xlink" width="512" height="512" x="0" y="0" viewBox="0 0 34 34" style="enable-background:new 0 0 512 512" xml:space="preserve" class=""><g transform="matrix(1.0499999999999998,0,0,1.0499999999999998,-0.8499999999999943,-0.8499999999999943)"><path d="M30 4.8C30 2.7 28.3 1 26.2 1H7.8C5.7 1 4 2.7 4 4.8v24.4C4 31.3 5.7 33 7.8 33h18.4c2.1 0 3.8-1.7 3.8-3.8zm-2 24.4c0 1-.8 1.8-1.8 1.8H7.8c-1 0-1.8-.8-1.8-1.8V4.8C6 3.8 6.8 3 7.8 3h18.4c1 0 1.8.8 1.8 1.8z" fill="#000000" opacity="1" data-original="#000000" class=""></path><path d="M10.9 19h11.8c.3 0 .6-.1.8-.4.2-.2.3-.5.2-.8-.4-2.4-1.9-4.3-3.9-5.2.6-.7 1-1.6 1-2.7 0-2.2-1.8-4-4-4s-4 1.8-4 4c0 1 .4 1.9 1 2.7-2 1-3.6 2.9-3.9 5.2 0 .3 0 .6.2.8.2.3.5.4.8.4zm3.9-9c0-1.1.9-2 2-2s2 .9 2 2-.9 2-2 2-2-.9-2-2zm2 4c2 0 3.8 1.2 4.6 3h-9.2c.8-1.8 2.6-3 4.6-3zM25 22H9c-.6 0-1 .4-1 1s.4 1 1 1h16c.6 0 1-.4 1-1s-.4-1-1-1zM25 26H9c-.6 0-1 .4-1 1s.4 1 1 1h16c.6 0 1-.4 1-1s-.4-1-1-1z" fill="#000000" opacity="1" data-original="#000000" class=""></path></g></svg>