<svg xmlns="http://www.w3.org/2000/svg" version="1.1" xmlns:xlink="http://www.w3.org/1999/xlink" width="512" height="512" x="0" y="0" viewBox="0 0 24 24" style="enable-background:new 0 0 512 512" xml:space="preserve" class=""><g transform="matrix(1.1900000000000002,0,0,1.1900000000000002,-2.280000000000003,-2.280000000000003)"><path fill="#000000" fill-rule="evenodd" d="M9.357 2h5.286c1.084 0 1.958 0 2.666.058.728.06 1.369.185 1.961.487a5 5 0 0 1 2.185 2.185c.302.592.428 1.233.487 1.961C22 7.4 22 8.273 22 9.357v5.286c0 1.084 0 1.958-.058 2.666-.06.729-.185 1.369-.487 1.961a5 5 0 0 1-2.185 2.185c-.592.302-1.232.428-1.961.487C16.6 22 15.727 22 14.643 22H9.357c-1.084 0-1.958 0-2.666-.058-.728-.06-1.369-.185-1.961-.487a5 5 0 0 1-2.185-2.185c-.302-.592-.428-1.232-.487-1.961C2 16.6 2 15.727 2 14.643V9.357c0-1.084 0-1.958.058-2.666.06-.728.185-1.369.487-1.96A5 5 0 0 1 4.73 2.544c.592-.302 1.233-.428 1.961-.487C7.4 2 8.273 2 9.357 2zM6.854 4.051c-.605.05-.953.142-1.216.276a3 3 0 0 0-1.311 1.311c-.134.263-.226.611-.276 1.216C4.001 7.471 4 8.264 4 9.4v5.2c0 1.137 0 1.929.051 2.546.05.605.142.953.276 1.216a3 3 0 0 0 1.311 1.311c.263.134.611.226 1.216.276.617.05 1.41.051 2.546.051h5.2c1.137 0 1.929 0 2.546-.051.605-.05.953-.142 1.216-.276a3 3 0 0 0 1.311-1.311c.134-.263.226-.611.276-1.216.05-.617.051-1.41.051-2.546V9.4c0-1.137 0-1.929-.051-2.546-.05-.605-.142-.953-.276-1.216a3 3 0 0 0-1.311-1.311c-.263-.134-.611-.226-1.216-.276C16.529 4.001 15.736 4 14.6 4H9.4c-1.137 0-1.929 0-2.546.051zm5.83 4a1 1 0 0 1 1.265.633L15 11.838l1.051-3.154a1 1 0 0 1 1.898.632l-2 6a1 1 0 0 1-1.898 0l-2-6a1 1 0 0 1 .633-1.265zM9.968 8H10a1 1 0 1 1 0 2c-.48 0-.79 0-1.026.017-.228.015-.315.042-.357.06a1 1 0 0 0-.54.54c-.018.042-.045.129-.06.357C8 11.21 8 11.52 8 12s0 .79.017 1.026c.015.228.042.315.06.357a1 1 0 0 0 .54.54c.042.018.129.045.357.06C9.21 14 9.52 14 10 14a1 1 0 1 1 0 2h-.032c-.439 0-.817 0-1.13-.021a3.072 3.072 0 0 1-.986-.207 3 3 0 0 1-1.624-1.624 3.07 3.07 0 0 1-.207-.986C6 12.85 6 12.471 6 12.032v-.064c0-.439 0-.817.021-1.13.023-.33.072-.66.207-.986a3 3 0 0 1 1.624-1.624 3.07 3.07 0 0 1 .986-.207C9.15 8 9.529 8 9.968 8z" clip-rule="evenodd" opacity="1" data-original="#000000" class=""></path></g></svg>